<svg width="158" height="158" viewBox="0 0 158 158" fill="none" xmlns="http://www.w3.org/2000/svg">
<circle cx="79" cy="79" r="79" fill="black"/>
<path d="M122.159 100.313H93.7349V87.7446H122.159V100.313ZM122.159 77.6416H93.8315C92.1235 77.6416 90.8345 78.0767 89.9644 78.9468C89.0942 79.7847 88.6592 81.0254 88.6592 82.6689V140H76.0908V82.6689C76.0908 80.5098 76.3647 78.5762 76.9126 76.8682C77.4604 75.1602 78.1855 73.6616 79.0879 72.3726C80.0225 71.0513 81.0859 69.9395 82.2783 69.0371C83.4707 68.1025 84.7114 67.3452 86.0005 66.7651C87.3218 66.1851 88.6431 65.7661 89.9644 65.5083C91.2856 65.2183 92.5425 65.0732 93.7349 65.0732H122.159V77.6416Z" fill="white"/>
<path d="M122 87.5H88.5V100H122V87.5Z" stroke="white"/>
<path d="M97.0684 100H51.2676C50.0957 100 48.8262 99.8698 47.459 99.6094C46.1243 99.3164 44.7897 98.877 43.4551 98.291C42.153 97.7051 40.8997 96.9564 39.6953 96.0449C38.4909 95.1009 37.4167 93.9779 36.4727 92.6758C35.5612 91.3411 34.8288 89.8112 34.2754 88.0859C33.722 86.3281 33.4453 84.3587 33.4453 82.1777V47.8027C33.4453 46.6309 33.5755 45.3776 33.8359 44.043C34.1289 42.6758 34.5684 41.3411 35.1543 40.0391C35.7402 38.7044 36.5052 37.4349 37.4492 36.2305C38.3932 35.026 39.5163 33.9681 40.8184 33.0566C42.153 32.1126 43.6829 31.3639 45.4082 30.8105C47.1335 30.2572 49.0866 29.9805 51.2676 29.9805H97.0684V42.6758H51.2676C49.6074 42.6758 48.3379 43.1152 47.459 43.9941C46.5801 44.873 46.1406 46.1751 46.1406 47.9004V82.1777C46.1406 83.8053 46.5801 85.0749 47.459 85.9863C48.3704 86.8652 49.64 87.3047 51.2676 87.3047H97.0684V100Z" fill="white"/>
</svg>
