<svg width="1284" height="591" viewBox="0 0 1284 591" fill="none" xmlns="http://www.w3.org/2000/svg">
<g clip-path="url(#clip0_2_12)">
<path d="M91.97 159L75.78 196.35H51.71V229.94H60.92L70.35 289.69H55.62L75.1 399.42L87.59 399.27L100.15 479H219.06L219.89 473.69L231.61 399.26L243.49 399.41L262.92 289.68H248.85L258.22 229.93H268.33V196.34H242.76L226.51 158.99L91.97 159ZM99.01 169.73H219.58L229.83 193.48H88.68L99.01 169.73ZM62.35 207.03H257.6V219.31H62.35V207.03ZM68.39 300.36H250.22L234.54 388.59L159.18 387.8L84.07 388.59L68.39 300.36Z" fill="#111111"/>
<path d="M131.5 372.6L93.4 352.6V347.8L131.5 327.8V334.5L101 350.2L131.5 365.9V372.6ZM138.175 385.2L172.175 304.3L177.675 307.1L143.675 388L138.175 385.2ZM222.516 352.6L184.416 372.6V365.9L214.916 350.2L184.416 334.5V327.8L222.516 347.8V352.6Z" fill="#111111"/>
</g>
<path d="M399.652 319.979C383.246 319.979 367.865 328.979 353.51 346.98V430.721C353.51 434.139 352.257 437.101 349.75 439.607C347.243 442.114 344.281 443.367 340.863 443.367C337.445 443.367 334.483 442.114 331.977 439.607C329.47 437.101 328.217 434.139 328.217 430.721V248.885C328.217 245.239 329.356 242.277 331.635 239.998C334.141 237.492 337.217 236.238 340.863 236.238C344.281 236.238 347.243 237.492 349.75 239.998C352.257 242.277 353.51 245.239 353.51 248.885V322.371C361.029 314.624 367.523 309.041 372.992 305.623C383.474 299.471 393.5 296.395 403.07 296.395C412.868 296.395 420.844 297.876 426.996 300.838C433.148 303.572 438.389 307.56 442.719 312.801C451.378 323.055 455.707 335.815 455.707 351.082V430.721C455.707 434.139 454.454 437.101 451.947 439.607C449.441 442.114 446.479 443.367 443.061 443.367C439.643 443.367 436.68 442.114 434.174 439.607C431.667 437.101 430.414 434.139 430.414 430.721V353.816C430.414 343.335 428.021 335.132 423.236 329.207C418.451 323.055 410.59 319.979 399.652 319.979ZM503.559 306.307C519.281 299.471 535.574 296.167 552.436 296.395C571.348 296.395 586.046 302.205 596.527 313.826C605.87 323.852 610.655 336.385 610.883 351.424V430.721C610.883 434.139 609.516 437.101 606.781 439.607C604.275 442.114 601.199 443.367 597.553 443.367C594.135 443.367 591.173 442.114 588.666 439.607C586.16 437.101 584.906 434.139 584.906 430.721V423.543C579.893 428.784 573.171 433.683 564.74 438.24C556.309 442.57 545.6 444.734 532.611 444.734C519.623 444.734 508.799 440.975 500.141 433.455C491.254 425.708 486.811 415.568 486.811 403.035C486.811 389.135 492.051 378.198 502.533 370.223C513.926 361.564 530.105 357.348 551.068 357.576H584.906V355.184C584.906 342.651 581.83 333.764 575.678 328.523C569.753 323.283 560.411 320.662 547.65 320.662C536.941 320.662 524.522 322.827 510.395 327.156C509.027 327.612 507.318 327.84 505.268 327.84C503.445 327.84 501.508 326.928 499.457 325.105C497.406 323.055 496.267 319.979 496.039 315.877C496.039 311.548 498.546 308.357 503.559 306.307ZM512.445 399.959C512.445 414.998 522.357 422.404 542.182 422.176C550.84 422.176 558.93 420.125 566.449 416.023C574.197 411.694 580.349 406.909 584.906 401.668V378.084H554.828C541.612 378.084 531.244 379.793 523.725 383.211C516.205 386.401 512.445 391.984 512.445 399.959ZM725.043 319.979C708.637 319.979 693.256 328.979 678.9 346.98V430.721C678.9 434.139 677.647 437.101 675.141 439.607C672.634 442.114 669.672 443.367 666.254 443.367C662.836 443.367 659.874 442.114 657.367 439.607C654.861 437.101 653.607 434.139 653.607 430.721V310.75C653.607 307.104 654.747 304.028 657.025 301.521C659.532 299.015 662.608 297.762 666.254 297.762C669.672 297.762 672.634 299.015 675.141 301.521C677.647 303.8 678.9 306.876 678.9 310.75V322.371C686.42 314.624 692.914 309.041 698.383 305.623C708.865 299.471 718.891 296.395 728.461 296.395C738.259 296.395 746.234 297.876 752.387 300.838C758.539 303.572 763.78 307.56 768.109 312.801C776.768 323.055 781.098 335.815 781.098 351.082V430.721C781.098 434.139 779.844 437.101 777.338 439.607C774.831 442.114 771.869 443.367 768.451 443.367C765.033 443.367 762.071 442.114 759.564 439.607C757.058 437.101 755.805 434.139 755.805 430.721V353.816C755.805 343.335 753.412 335.132 748.627 329.207C743.842 323.055 735.98 319.979 725.043 319.979ZM929.438 430.379C929.438 433.569 928.298 436.303 926.02 438.582C923.741 440.861 920.893 442 917.475 442H829.975C824.962 442 820.746 440.747 817.328 438.24C814.138 435.734 812.543 432.202 812.543 427.645C812.543 423.087 814.024 419.1 816.986 415.682L897.65 323.055H826.898C823.708 323.055 820.86 321.915 818.354 319.637C816.075 317.358 814.936 314.624 814.936 311.434C814.936 308.243 816.075 305.395 818.354 302.889C820.632 300.382 823.48 299.129 826.898 299.129H911.664C916.677 299.129 920.665 300.61 923.627 303.572C926.589 306.535 928.07 310.294 928.07 314.852C928.07 319.409 926.703 323.283 923.969 326.473L845.697 418.074H917.475C920.665 418.074 923.399 419.327 925.678 421.834C928.184 424.34 929.438 427.189 929.438 430.379ZM968.402 306.307C984.125 299.471 1000.42 296.167 1017.28 296.395C1036.19 296.395 1050.89 302.205 1061.37 313.826C1070.71 323.852 1075.5 336.385 1075.73 351.424V430.721C1075.73 434.139 1074.36 437.101 1071.62 439.607C1069.12 442.114 1066.04 443.367 1062.4 443.367C1058.98 443.367 1056.02 442.114 1053.51 439.607C1051 437.101 1049.75 434.139 1049.75 430.721V423.543C1044.74 428.784 1038.01 433.683 1029.58 438.24C1021.15 442.57 1010.44 444.734 997.455 444.734C984.467 444.734 973.643 440.975 964.984 433.455C956.098 425.708 951.654 415.568 951.654 403.035C951.654 389.135 956.895 378.198 967.377 370.223C978.77 361.564 994.949 357.348 1015.91 357.576H1049.75V355.184C1049.75 342.651 1046.67 333.764 1040.52 328.523C1034.6 323.283 1025.25 320.662 1012.49 320.662C1001.78 320.662 989.366 322.827 975.238 327.156C973.871 327.612 972.162 327.84 970.111 327.84C968.288 327.84 966.352 326.928 964.301 325.105C962.25 323.055 961.111 319.979 960.883 315.877C960.883 311.548 963.389 308.357 968.402 306.307ZM977.289 399.959C977.289 414.998 987.201 422.404 1007.03 422.176C1015.68 422.176 1023.77 420.125 1031.29 416.023C1039.04 411.694 1045.19 406.909 1049.75 401.668V378.084H1019.67C1006.46 378.084 996.088 379.793 988.568 383.211C981.049 386.401 977.289 391.984 977.289 399.959ZM1189.89 319.979C1173.48 319.979 1158.1 328.979 1143.74 346.98V430.721C1143.74 434.139 1142.49 437.101 1139.98 439.607C1137.48 442.114 1134.52 443.367 1131.1 443.367C1127.68 443.367 1124.72 442.114 1122.21 439.607C1119.7 437.101 1118.45 434.139 1118.45 430.721V310.75C1118.45 307.104 1119.59 304.028 1121.87 301.521C1124.38 299.015 1127.45 297.762 1131.1 297.762C1134.52 297.762 1137.48 299.015 1139.98 301.521C1142.49 303.8 1143.74 306.876 1143.74 310.75V322.371C1151.26 314.624 1157.76 309.041 1163.23 305.623C1173.71 299.471 1183.73 296.395 1193.3 296.395C1203.1 296.395 1211.08 297.876 1217.23 300.838C1223.38 303.572 1228.62 307.56 1232.95 312.801C1241.61 323.055 1245.94 335.815 1245.94 351.082V430.721C1245.94 434.139 1244.69 437.101 1242.18 439.607C1239.68 442.114 1236.71 443.367 1233.29 443.367C1229.88 443.367 1226.91 442.114 1224.41 439.607C1221.9 437.101 1220.65 434.139 1220.65 430.721V353.816C1220.65 343.335 1218.26 335.132 1213.47 329.207C1208.69 323.055 1200.82 319.979 1189.89 319.979Z" fill="black"/>
<defs>
<clipPath id="clip0_2_12">
<rect width="320" height="320" fill="white" transform="translate(0 159)"/>
</clipPath>
</defs>
</svg>
