<svg width="757" height="168" viewBox="0 0 757 168" fill="none" xmlns="http://www.w3.org/2000/svg">
<circle cx="79" cy="79" r="79" fill="black"/>
<path d="M122.159 100.313H93.7349V87.7446H122.159V100.313ZM122.159 77.6416H93.8315C92.1235 77.6416 90.8345 78.0767 89.9644 78.9468C89.0942 79.7847 88.6592 81.0254 88.6592 82.6689V140H76.0908V82.6689C76.0908 80.5098 76.3647 78.5762 76.9126 76.8682C77.4604 75.1602 78.1855 73.6616 79.0879 72.3726C80.0225 71.0513 81.0859 69.9395 82.2783 69.0371C83.4707 68.1025 84.7114 67.3452 86.0005 66.7651C87.3218 66.1851 88.6431 65.7661 89.9644 65.5083C91.2856 65.2183 92.5425 65.0732 93.7349 65.0732H122.159V77.6416Z" fill="white"/>
<path d="M122 87.5H88.5V100H122V87.5Z" stroke="white"/>
<path d="M97.0684 100H51.2676C50.0957 100 48.8262 99.8698 47.459 99.6094C46.1243 99.3164 44.7897 98.877 43.4551 98.291C42.153 97.7051 40.8997 96.9564 39.6953 96.0449C38.4909 95.1009 37.4167 93.9779 36.4727 92.6758C35.5612 91.3411 34.8288 89.8112 34.2754 88.0859C33.722 86.3281 33.4453 84.3587 33.4453 82.1777V47.8027C33.4453 46.6309 33.5755 45.3776 33.8359 44.043C34.1289 42.6758 34.5684 41.3411 35.1543 40.0391C35.7402 38.7044 36.5052 37.4349 37.4492 36.2305C38.3932 35.026 39.5163 33.9681 40.8184 33.0566C42.153 32.1126 43.6829 31.3639 45.4082 30.8105C47.1335 30.2572 49.0866 29.9805 51.2676 29.9805H97.0684V42.6758H51.2676C49.6074 42.6758 48.3379 43.1152 47.459 43.9941C46.5801 44.873 46.1406 46.1751 46.1406 47.9004V82.1777C46.1406 83.8053 46.5801 85.0749 47.459 85.9863C48.3704 86.8652 49.64 87.3047 51.2676 87.3047H97.0684V100Z" fill="white"/>
<path d="M227.844 106.891C227.844 108.984 227.578 110.875 227.047 112.562C226.516 114.219 225.812 115.688 224.938 116.969C224.062 118.219 223.047 119.297 221.891 120.203C220.734 121.078 219.516 121.797 218.234 122.359C216.984 122.922 215.703 123.344 214.391 123.625C213.109 123.875 211.891 124 210.734 124H188.75C187.062 124 185.219 123.703 183.219 123.109C181.219 122.516 179.359 121.547 177.641 120.203C175.953 118.828 174.531 117.062 173.375 114.906C172.25 112.719 171.688 110.047 171.688 106.891V90.3906C171.688 87.2656 172.25 84.625 173.375 82.4688C174.531 80.2812 175.953 78.5156 177.641 77.1719C179.359 75.7969 181.219 74.8125 183.219 74.2188C185.219 73.625 187.062 73.3281 188.75 73.3281H210.734C213.859 73.3281 216.516 73.8906 218.703 75.0156C220.891 76.1406 222.656 77.5625 224 79.2812C225.344 80.9688 226.312 82.8125 226.906 84.8125C227.531 86.8125 227.844 88.6719 227.844 90.3906V106.891ZM215.656 90.4844C215.656 88.7969 215.234 87.5469 214.391 86.7344C213.547 85.9219 212.328 85.5156 210.734 85.5156H188.844C187.219 85.5156 185.984 85.9375 185.141 86.7812C184.297 87.5938 183.875 88.7969 183.875 90.3906V106.891C183.875 108.484 184.297 109.703 185.141 110.547C185.984 111.391 187.219 111.812 188.844 111.812H210.734C212.391 111.812 213.625 111.391 214.438 110.547C215.25 109.703 215.656 108.484 215.656 106.891V90.4844ZM294.406 124H282.219V95.875C282.219 94.2812 281.938 92.8594 281.375 91.6094C280.844 90.3281 280.109 89.2344 279.172 88.3281C278.234 87.4219 277.125 86.7344 275.844 86.2656C274.594 85.7656 273.234 85.5156 271.766 85.5156H250.438V124H238.25V79.375C238.25 78.5312 238.406 77.75 238.719 77.0312C239.031 76.2812 239.469 75.6406 240.031 75.1094C240.594 74.5469 241.25 74.1094 242 73.7969C242.75 73.4844 243.547 73.3281 244.391 73.3281H271.859C273.391 73.3281 275 73.5 276.688 73.8438C278.406 74.1875 280.094 74.75 281.75 75.5312C283.438 76.2812 285.031 77.25 286.531 78.4375C288.062 79.5938 289.406 81.0156 290.562 82.7031C291.75 84.3594 292.688 86.2812 293.375 88.4688C294.062 90.6562 294.406 93.125 294.406 95.875V124ZM359.609 90.1094C359.609 91.7969 359.312 93.625 358.719 95.5938C358.125 97.5312 357.156 99.3438 355.812 101.031C354.5 102.688 352.766 104.078 350.609 105.203C348.484 106.328 345.891 106.891 342.828 106.891H320.844V95.3125H342.828C344.484 95.3125 345.766 94.8125 346.672 93.8125C347.578 92.7812 348.031 91.5156 348.031 90.0156C348.031 88.4219 347.516 87.1719 346.484 86.2656C345.484 85.3594 344.266 84.9062 342.828 84.9062H320.844C319.188 84.9062 317.906 85.4219 317 86.4531C316.094 87.4531 315.641 88.7031 315.641 90.2031V107.219C315.641 108.844 316.141 110.109 317.141 111.016C318.172 111.922 319.438 112.375 320.938 112.375H342.828V124H320.844C319.156 124 317.328 123.703 315.359 123.109C313.422 122.516 311.609 121.562 309.922 120.25C308.266 118.906 306.875 117.172 305.75 115.047C304.625 112.891 304.062 110.281 304.062 107.219V90.1094C304.062 88.4219 304.359 86.6094 304.953 84.6719C305.547 82.7031 306.5 80.8906 307.812 79.2344C309.156 77.5469 310.891 76.1406 313.016 75.0156C315.172 73.8906 317.781 73.3281 320.844 73.3281H342.828C344.516 73.3281 346.328 73.625 348.266 74.2188C350.234 74.8125 352.047 75.7812 353.703 77.125C355.391 78.4375 356.797 80.1719 357.922 82.3281C359.047 84.4531 359.609 87.0469 359.609 90.1094ZM416.891 124H383.844C382.156 124 380.312 123.703 378.312 123.109C376.312 122.516 374.453 121.547 372.734 120.203C371.047 118.828 369.625 117.062 368.469 114.906C367.344 112.719 366.781 110.047 366.781 106.891V90.3906C366.781 89.2344 366.906 88.0156 367.156 86.7344C367.438 85.4531 367.859 84.1875 368.422 82.9375C368.984 81.6562 369.703 80.4375 370.578 79.2812C371.484 78.125 372.562 77.1094 373.812 76.2344C375.094 75.3594 376.562 74.6562 378.219 74.125C379.875 73.5938 381.75 73.3281 383.844 73.3281H416.891V85.5156H383.844C382.25 85.5156 381.031 85.9219 380.188 86.7344C379.375 87.5469 378.969 88.7969 378.969 90.4844V106.891C378.969 108.484 379.391 109.703 380.234 110.547C381.078 111.391 382.312 111.812 383.938 111.812H416.891V124ZM481.719 106.891C481.719 108.984 481.453 110.875 480.922 112.562C480.391 114.219 479.688 115.688 478.812 116.969C477.938 118.219 476.922 119.297 475.766 120.203C474.609 121.078 473.391 121.797 472.109 122.359C470.859 122.922 469.578 123.344 468.266 123.625C466.984 123.875 465.766 124 464.609 124H442.625C440.938 124 439.094 123.703 437.094 123.109C435.094 122.516 433.234 121.547 431.516 120.203C429.828 118.828 428.406 117.062 427.25 114.906C426.125 112.719 425.562 110.047 425.562 106.891V90.3906C425.562 87.2656 426.125 84.625 427.25 82.4688C428.406 80.2812 429.828 78.5156 431.516 77.1719C433.234 75.7969 435.094 74.8125 437.094 74.2188C439.094 73.625 440.938 73.3281 442.625 73.3281H464.609C467.734 73.3281 470.391 73.8906 472.578 75.0156C474.766 76.1406 476.531 77.5625 477.875 79.2812C479.219 80.9688 480.188 82.8125 480.781 84.8125C481.406 86.8125 481.719 88.6719 481.719 90.3906V106.891ZM469.531 90.4844C469.531 88.7969 469.109 87.5469 468.266 86.7344C467.422 85.9219 466.203 85.5156 464.609 85.5156H442.719C441.094 85.5156 439.859 85.9375 439.016 86.7812C438.172 87.5938 437.75 88.7969 437.75 90.3906V106.891C437.75 108.484 438.172 109.703 439.016 110.547C439.859 111.391 441.094 111.812 442.719 111.812H464.609C466.266 111.812 467.5 111.391 468.312 110.547C469.125 109.703 469.531 108.484 469.531 106.891V90.4844ZM646.801 90.1094C646.801 91.7969 646.504 93.625 645.91 95.5938C645.316 97.5312 644.348 99.3438 643.004 101.031C641.691 102.688 639.957 104.078 637.801 105.203C635.676 106.328 633.082 106.891 630.02 106.891H608.035V95.3125H630.02C631.676 95.3125 632.957 94.8125 633.863 93.8125C634.77 92.7812 635.223 91.5156 635.223 90.0156C635.223 88.4219 634.707 87.1719 633.676 86.2656C632.676 85.3594 631.457 84.9062 630.02 84.9062H608.035C606.379 84.9062 605.098 85.4219 604.191 86.4531C603.285 87.4531 602.832 88.7031 602.832 90.2031V107.219C602.832 108.844 603.332 110.109 604.332 111.016C605.363 111.922 606.629 112.375 608.129 112.375H630.02V124H608.035C606.348 124 604.52 123.703 602.551 123.109C600.613 122.516 598.801 121.562 597.113 120.25C595.457 118.906 594.066 117.172 592.941 115.047C591.816 112.891 591.254 110.281 591.254 107.219V90.1094C591.254 88.4219 591.551 86.6094 592.145 84.6719C592.738 82.7031 593.691 80.8906 595.004 79.2344C596.348 77.5469 598.082 76.1406 600.207 75.0156C602.363 73.8906 604.973 73.3281 608.035 73.3281H630.02C631.707 73.3281 633.52 73.625 635.457 74.2188C637.426 74.8125 639.238 75.7812 640.895 77.125C642.582 78.4375 643.988 80.1719 645.113 82.3281C646.238 84.4531 646.801 87.0469 646.801 90.1094ZM709.52 90.1094C709.52 91.7969 709.223 93.625 708.629 95.5938C708.035 97.5312 707.066 99.3438 705.723 101.031C704.41 102.688 702.676 104.078 700.52 105.203C698.395 106.328 695.801 106.891 692.738 106.891H670.754V95.3125H692.738C694.395 95.3125 695.676 94.8125 696.582 93.8125C697.488 92.7812 697.941 91.5156 697.941 90.0156C697.941 88.4219 697.426 87.1719 696.395 86.2656C695.395 85.3594 694.176 84.9062 692.738 84.9062H670.754C669.098 84.9062 667.816 85.4219 666.91 86.4531C666.004 87.4531 665.551 88.7031 665.551 90.2031V107.219C665.551 108.844 666.051 110.109 667.051 111.016C668.082 111.922 669.348 112.375 670.848 112.375H692.738V124H670.754C669.066 124 667.238 123.703 665.27 123.109C663.332 122.516 661.52 121.562 659.832 120.25C658.176 118.906 656.785 117.172 655.66 115.047C654.535 112.891 653.973 110.281 653.973 107.219V90.1094C653.973 88.4219 654.27 86.6094 654.863 84.6719C655.457 82.7031 656.41 80.8906 657.723 79.2344C659.066 77.5469 660.801 76.1406 662.926 75.0156C665.082 73.8906 667.691 73.3281 670.754 73.3281H692.738C694.426 73.3281 696.238 73.625 698.176 74.2188C700.145 74.8125 701.957 75.7812 703.613 77.125C705.301 78.4375 706.707 80.1719 707.832 82.3281C708.957 84.4531 709.52 87.0469 709.52 90.1094Z" fill="black"/>
<path d="M533.578 106.516H506.016V94.3281H533.578V106.516ZM533.578 84.5312H506.109C504.453 84.5312 503.203 84.9531 502.359 85.7969C501.516 86.6094 501.094 87.8125 501.094 89.4062V145H488.906V89.4062C488.906 87.3125 489.172 85.4375 489.703 83.7812C490.234 82.125 490.938 80.6719 491.812 79.4219C492.719 78.1406 493.75 77.0625 494.906 76.1875C496.062 75.2812 497.266 74.5469 498.516 73.9844C499.797 73.4219 501.078 73.0156 502.359 72.7656C503.641 72.4844 504.859 72.3438 506.016 72.3438H533.578V84.5312ZM586.453 106.516H558.891V94.3281H586.453V106.516ZM586.453 84.5312H558.984C557.328 84.5312 556.078 84.9531 555.234 85.7969C554.391 86.6094 553.969 87.8125 553.969 89.4062V145H541.781V89.4062C541.781 87.3125 542.047 85.4375 542.578 83.7812C543.109 82.125 543.812 80.6719 544.688 79.4219C545.594 78.1406 546.625 77.0625 547.781 76.1875C548.938 75.2812 550.141 74.5469 551.391 73.9844C552.672 73.4219 553.953 73.0156 555.234 72.7656C556.516 72.4844 557.734 72.3438 558.891 72.3438H586.453V84.5312Z" fill="black"/>
</svg>
